<?xml version="1.0" encoding="UTF-8"?><svg xmlns="http://www.w3.org/2000/svg" viewBox="0 0 40 40"><defs><style>.c{fill:none;stroke:#000;stroke-miterlimit:10;stroke-width:1.75px;}</style></defs><g id="a"><g><circle class="c" cx="20" cy="20" r="18.77"/><path d="M30.23,15.85h0c-.26-5.42-4.75-9.76-10.23-9.76s-9.96,4.34-10.23,9.76c-1.67,.26-2.93,1.7-2.93,3.43v3.52c0,1.93,1.55,3.49,3.49,3.49h.76c1.93,0,3.49-1.55,3.49-3.49v-3.52c0-1.73-1.26-3.14-2.87-3.43,.26-4.37,3.87-7.83,8.29-7.83s8.03,3.46,8.29,7.83c-1.64,.29-2.87,1.73-2.87,3.43v3.52c0,1.52,.97,2.81,2.32,3.28-.82,1.88-2.46,3.28-4.45,3.84-.26-.97-1.14-1.67-2.17-1.67h-2.26c-1.26,0-2.26,1.03-2.26,2.26v1.14c0,1.26,1.03,2.26,2.26,2.26h2.26c1.17,0,2.11-.88,2.23-2.02,2.96-.64,5.36-2.81,6.39-5.63,1.9-.03,3.43-1.58,3.43-3.49v-3.52c0-1.7-1.26-3.14-2.93-3.4Z"/></g></g><g id="b"/></svg>